<?xml version="1.0" standalone="no"?>
<!DOCTYPE svg PUBLIC "-//W3C//DTD SVG 20010904//EN"
 "http://www.w3.org/TR/2001/REC-SVG-20010904/DTD/svg10.dtd">
<svg version="1.0" xmlns="http://www.w3.org/2000/svg"
 width="80.000000pt" height="80.000000pt" viewBox="0 0 80.000000 80.000000"
 preserveAspectRatio="xMidYMid meet">
<metadata>
Created by potrace 1.11, written by Peter Selinger 2001-2013
</metadata>
<g transform="translate(0.000000,80.000000) scale(0.100000,-0.100000)"
fill="#000000" stroke="none">
<path d="M631 681 c-7 -5 -10 -14 -6 -20 5 -9 11 -7 20 5 17 24 45 11 45 -20
0 -17 -12 -35 -35 -53 -50 -40 -46 -53 20 -53 54 0 55 1 54 28 0 15 -3 21 -6
15 -2 -7 -19 -13 -36 -13 l-32 0 38 31 c20 17 37 39 37 49 0 33 -64 53 -99 31z"/>
<path d="M70 571 c0 -14 8 -21 27 -23 l28 -3 0 -182 0 -183 -27 0 c-22 0 -28
-5 -28 -20 0 -19 5 -21 78 -18 60 2 77 6 77 18 0 9 -11 16 -27 18 l-28 3 0
141 0 140 52 -64 c29 -34 59 -70 68 -78 8 -8 46 -52 84 -97 66 -79 71 -83 110
-83 l41 0 0 205 0 205 27 0 c21 0 28 5 28 20 0 18 -7 20 -78 20 -71 0 -78 -2
-79 -20 -1 -16 4 -20 28 -20 l29 0 0 -137 c0 -132 -1 -136 -18 -117 -9 10 -71
81 -136 157 l-118 137 -69 0 c-62 0 -69 -2 -69 -19z"/>
</g>
</svg>
